<?xml version="1.0" encoding="UTF-8"?>
<svg version="1.1" xmlns="http://www.w3.org/2000/svg" width="50" height="50">
<path d="M0 0 C3.7125 -0.2475 7.425 -0.495 11.25 -0.75 C12.3937207 -0.85924805 13.53744141 -0.96849609 14.71582031 -1.08105469 C21.52007414 -1.2969522 25.83228187 0.40709707 30.75 4.9375 C35.99357285 10.32387302 37.19930857 15.2369666 37.16162109 22.61743164 C37.06965462 24.99713384 36.90585038 27.3736265 36.75 29.75 C36.5025 35.1125 36.255 40.475 36 46 C24.12 46 12.24 46 0 46 C0 30.82 0 15.64 0 0 Z M2 2 C2 15.86 2 29.72 2 44 C12.56 44 23.12 44 34 44 C34 34.43 34 24.86 34 15 C29.71 15 25.42 15 21 15 C21 10.71 21 6.42 21 2 C14.73 2 8.46 2 2 2 Z M23 5 C23 7.64 23 10.28 23 13 C25.64 13 28.28 13 31 13 C30.04578192 11.85073734 29.08647955 10.70569459 28.125 9.5625 C27.59132813 8.92441406 27.05765625 8.28632813 26.5078125 7.62890625 C25.0777243 5.89194996 25.0777243 5.89194996 23 5 Z " fill="#FFFFFF" transform="translate(7,2)"/>
<path d="M0 0 C3.3 0 6.6 0 10 0 C10 2.97 10 5.94 10 9 C11.32 8.34 12.64 7.68 14 7 C13.34 6.34 12.68 5.68 12 5 C12.375 2.375 12.375 2.375 13 0 C14.65 0 16.3 0 18 0 C17.34 1.32 16.68 2.64 16 4 C16.66 4.66 17.32 5.32 18 6 C17.67 7.65 17.34 9.3 17 11 C11.39 11 5.78 11 0 11 C0 7.37 0 3.74 0 0 Z M6 1 C5.32198966 3.90073181 5.32198966 3.90073181 5 7 C5.66 7.66 6.32 8.32 7 9 C7 6.36 7 3.72 7 1 C6.67 1 6.34 1 6 1 Z " fill="#FFFFFF" transform="translate(16,23)"/>
</svg>
