<?xml version="1.0" encoding="UTF-8"?>
<svg version="1.1" xmlns="http://www.w3.org/2000/svg" width="50" height="50">
<path d="M0 0 C25 0 25 0 33.01171875 5.29296875 C39.86118423 13.74840504 39.49479613 21.85883156 38.8125 32.3125 C38.544375 38.149375 38.27625 43.98625 38 50 C25.46 50 12.92 50 0 50 C0 33.5 0 17 0 0 Z M2 2 C2 17.18 2 32.36 2 48 C13.22 48 24.44 48 36 48 C36 37.44 36 26.88 36 16 C31.38 16 26.76 16 22 16 C22 11.38 22 6.76 22 2 C15.4 2 8.8 2 2 2 Z M24 5 C24 7.97 24 10.94 24 14 C26.97 14 29.94 14 33 14 C32.071875 12.88625 31.14375 11.7725 30.1875 10.625 C29.66542969 9.99851562 29.14335938 9.37203125 28.60546875 8.7265625 C26.91774261 6.7778952 26.91774261 6.7778952 24 5 Z " fill="#FFFFFF" transform="translate(6,0)"/>
<path d="M0 0 C2.33333333 0 4.66666667 0 7 0 C8.2375 -0.061875 8.2375 -0.061875 9.5 -0.125 C12 0 12 0 14 2 C14.33 1.34 14.66 0.68 15 0 C16.98 0 18.96 0 21 0 C21 0.99 21 1.98 21 3 C20.01 3 19.02 3 18 3 C18 3.66 18 4.32 18 5 C18.99 5 19.98 5 21 5 C21 5.99 21 6.98 21 8 C20.01 8 19.02 8 18 8 C18 9.32 18 10.64 18 12 C17.46375 11.79375 16.9275 11.5875 16.375 11.375 C13.16732692 10.8685253 10.98682934 11.84599775 8 13 C7.34 11.02 6.68 9.04 6 7 C4.68 7.33 3.36 7.66 2 8 C2 9.32 2 10.64 2 12 C1.34 12 0.68 12 0 12 C0 8.04 0 4.08 0 0 Z M2 3 C2 3.66 2 4.32 2 5 C2.66 5 3.32 5 4 5 C4 4.34 4 3.68 4 3 C3.34 3 2.68 3 2 3 Z M10 3 C10 5.31 10 7.62 10 10 C10.66 9.01 11.32 8.02 12 7 C11.34 5.68 10.68 4.36 10 3 Z " fill="#FFFFFF" transform="translate(15,24)"/>
</svg>
