<?xml version="1.0" encoding="UTF-8"?>
<svg version="1.1" xmlns="http://www.w3.org/2000/svg" width="50" height="50">
<path d="M0 0 C3.7125 -0.2475 7.425 -0.495 11.25 -0.75 C12.3937207 -0.85924805 13.53744141 -0.96849609 14.71582031 -1.08105469 C21.52007414 -1.2969522 25.83228187 0.40709707 30.75 4.9375 C35.99357285 10.32387302 37.19930857 15.2369666 37.16162109 22.61743164 C37.06965462 24.99713384 36.90585038 27.3736265 36.75 29.75 C36.5025 35.1125 36.255 40.475 36 46 C24.12 46 12.24 46 0 46 C0 30.82 0 15.64 0 0 Z M2 2 C2 15.86 2 29.72 2 44 C12.56 44 23.12 44 34 44 C34 34.43 34 24.86 34 15 C29.71 15 25.42 15 21 15 C21 10.71 21 6.42 21 2 C14.73 2 8.46 2 2 2 Z M23 5 C23 7.64 23 10.28 23 13 C25.64 13 28.28 13 31 13 C30.04578192 11.85073734 29.08647955 10.70569459 28.125 9.5625 C27.59132813 8.92441406 27.05765625 8.28632813 26.5078125 7.62890625 C25.0777243 5.89194996 25.0777243 5.89194996 23 5 Z " fill="#FFFFFF" transform="translate(7,2)"/>
<path d="M0 0 C4.33333333 0 8.66666667 0 13 0 C13 3.63 13 7.26 13 11 C10.69 11 8.38 11 6 11 C5.67 9.68 5.34 8.36 5 7 C4.01 7 3.02 7 2 7 C2 8.32 2 9.64 2 11 C1.34 11 0.68 11 0 11 C0 7.37 0 3.74 0 0 Z M2 3 C3 5 3 5 3 5 Z " fill="#FFFFFF" transform="translate(15,23)"/>
<path d="M0 0 C0.78375 0.04125 1.5675 0.0825 2.375 0.125 C2.045 1.115 1.715 2.105 1.375 3.125 C0.385 3.125 -0.605 3.125 -1.625 3.125 C-1.625 3.785 -1.625 4.445 -1.625 5.125 C-0.305 5.125 1.015 5.125 2.375 5.125 C2.375 7.105 2.375 9.085 2.375 11.125 C0.37545254 11.16754356 -1.62541636 11.16580783 -3.625 11.125 C-5.51988952 9.23011048 -4.80519112 6.55360854 -4.85546875 4.03515625 C-4.45978854 0.75570502 -3.15370959 0.15017665 0 0 Z " fill="#FFFFFF" transform="translate(33.625,22.875)"/>
</svg>
