<?xml version="1.0" encoding="UTF-8"?>
<svg version="1.1" xmlns="http://www.w3.org/2000/svg" width="50" height="50">
<path d="M0 0 C3.7125 -0.2475 7.425 -0.495 11.25 -0.75 C12.3937207 -0.85924805 13.53744141 -0.96849609 14.71582031 -1.08105469 C21.52007414 -1.2969522 25.83228187 0.40709707 30.75 4.9375 C35.99357285 10.32387302 37.19930857 15.2369666 37.16162109 22.61743164 C37.06965462 24.99713384 36.90585038 27.3736265 36.75 29.75 C36.5025 35.1125 36.255 40.475 36 46 C24.12 46 12.24 46 0 46 C0 30.82 0 15.64 0 0 Z M2 2 C2 15.86 2 29.72 2 44 C12.56 44 23.12 44 34 44 C34 34.43 34 24.86 34 15 C29.71 15 25.42 15 21 15 C21 10.71 21 6.42 21 2 C14.73 2 8.46 2 2 2 Z M23 5 C23 7.64 23 10.28 23 13 C25.64 13 28.28 13 31 13 C30.04578192 11.85073734 29.08647955 10.70569459 28.125 9.5625 C27.59132813 8.92441406 27.05765625 8.28632813 26.5078125 7.62890625 C25.0777243 5.89194996 25.0777243 5.89194996 23 5 Z " fill="#FFFFFF" transform="translate(7,2)"/>
<path d="M0 0 C1.09054688 0.02320312 2.18109375 0.04640625 3.3046875 0.0703125 C4.40039062 0.08835937 5.49609375 0.10640625 6.625 0.125 C7.46804687 0.14820312 8.31109375 0.17140625 9.1796875 0.1953125 C9.1796875 0.8553125 9.1796875 1.5153125 9.1796875 2.1953125 C9.8396875 2.1953125 10.4996875 2.1953125 11.1796875 2.1953125 C11.1796875 1.5353125 11.1796875 0.8753125 11.1796875 0.1953125 C12.1696875 0.1953125 13.1596875 0.1953125 14.1796875 0.1953125 C13.5196875 3.8253125 12.8596875 7.4553125 12.1796875 11.1953125 C10.5296875 10.8653125 8.8796875 10.5353125 7.1796875 10.1953125 C6.8496875 10.5253125 6.5196875 10.8553125 6.1796875 11.1953125 C4.51539699 11.29355187 2.84686819 11.32504881 1.1796875 11.3203125 C-0.1815625 11.32417969 -0.1815625 11.32417969 -1.5703125 11.328125 C-3.8203125 11.1953125 -3.8203125 11.1953125 -4.8203125 10.1953125 C-5.09346065 4.45920139 -5.09346065 4.45920139 -4.8203125 2.1953125 C-2.8203125 0.1953125 -2.8203125 0.1953125 0 0 Z M-0.8203125 3.1953125 C-1.1503125 4.8453125 -1.4803125 6.4953125 -1.8203125 8.1953125 C1.22881978 9.20642343 1.22881978 9.20642343 4.1796875 8.1953125 C2.8243549 5.65857962 2.8243549 5.65857962 1.1796875 3.1953125 C0.5196875 3.1953125 -0.1403125 3.1953125 -0.8203125 3.1953125 Z M4.1796875 3.1953125 C5.1696875 4.1853125 6.1596875 5.1753125 7.1796875 6.1953125 C7.1796875 5.2053125 7.1796875 4.2153125 7.1796875 3.1953125 C6.1896875 3.1953125 5.1996875 3.1953125 4.1796875 3.1953125 Z " fill="#FFFFFF" transform="translate(20.8203125,22.8046875)"/>
</svg>
