<?xml version="1.0" encoding="utf-8" ?>
<svg baseProfile="full" height="50" version="1.1" width="50" xmlns="http://www.w3.org/2000/svg" xmlns:ev="http://www.w3.org/2001/xml-events" xmlns:xlink="http://www.w3.org/1999/xlink"><defs /><polygon fill="black" points="38,30 38,38 37,39 33,39 33,40 40,47 40,48 42,48 44,46 44,45 49,40 49,39 45,39 44,38 44,30" /><polygon fill="black" points="24,18 21,18 20,19 20,22 21,23 21,26 20,27 20,28 19,29 19,30 17,32 16,32 15,33 14,33 14,37 17,37 19,35 19,34 21,32 23,32 24,31 28,31 29,32 33,32 33,28 27,28 24,25" /><polygon fill="black" points="7,1 7,46 36,46 35,45 9,45 8,44 8,3 9,2 27,2 28,3 28,15 40,15 41,16 41,27 42,27 42,13 30,1" /></svg>