<?xml version="1.0" encoding="utf-8" ?>
<svg baseProfile="full" height="50" version="1.1" width="50" xmlns="http://www.w3.org/2000/svg" xmlns:ev="http://www.w3.org/2001/xml-events" xmlns:xlink="http://www.w3.org/1999/xlink"><defs /><polygon fill="black" points="17,19 17,20 18,21 18,22 20,24 20,25 21,26 21,29 19,31 19,32 18,33 18,34 16,36 21,36 23,34 23,33 24,32 25,32 27,34 27,35 28,36 33,36 32,35 32,34 30,32 30,31 28,29 28,26 30,24 30,23 31,22 31,21 33,19 28,19 27,20 27,21 26,22 26,23 25,24 23,22 23,21 22,20 22,19" /><polygon fill="black" points="7,2 7,47 37,47 38,46 40,49 42,49 49,41 49,40 45,40 44,39 44,31 38,31 38,39 37,40 33,40 37,45 36,46 9,46 8,45 8,4 9,3 27,3 28,4 28,16 40,16 41,17 41,28 42,28 42,14 30,2" /></svg>