<?xml version="1.0" encoding="utf-8" ?>
<svg baseProfile="full" height="50" version="1.1" width="50" xmlns="http://www.w3.org/2000/svg" xmlns:ev="http://www.w3.org/2001/xml-events" xmlns:xlink="http://www.w3.org/1999/xlink"><defs /><polygon fill="black" points="22,23 22,25 21,26 22,27 22,28 25,31 25,32 24,33 23,33 22,32 21,33 21,34 26,34 27,33 27,29 25,27 24,27 23,26 25,24 26,24 27,23 28,24 28,25 29,26 29,29 30,30 30,34 33,34 33,32 34,31 34,28 35,27 35,23 33,23 33,27 32,28 31,27 31,25 30,24 30,23" /><polygon fill="black" points="15,23 15,24 14,25 14,28 13,29 14,30 14,33 15,34 19,34 19,33 18,33 16,31 16,26 18,24 19,24 19,23" /><polygon fill="black" points="7,2 7,47 37,47 38,46 40,49 42,49 49,41 49,40 45,40 44,39 44,31 38,31 38,39 37,40 33,40 37,45 36,46 9,46 8,45 8,4 9,3 27,3 28,4 28,16 40,16 41,17 41,28 42,28 42,14 30,2" /></svg>